<svg xmlns:xlink="http://www.w3.org/1999/xlink" viewBox="0 0 34 34" version="1.1" xmlns="http://www.w3.org/2000/svg" width="34"  height="34" ><g stroke="none" stroke-width="1" fill="none" fill-rule="evenodd"><g transform="translate(-298.000000, -149.000000)" fill="#D9534C"><g transform="translate(44.000000, 136.000000)" fill="#D9534C"><g transform="translate(7.000000, 13.000000)" fill="#D9534C"><g transform="translate(247.000000, 0.000000)" fill="#D9534C"><path d="M16.7908408,21.3903124 L17.8543746,22.4173551 L8.63769372,31.634036 C6.90580338,33.3659263 4.09785434,33.3659263 2.36596401,31.634036 C0.634073669,29.9021457 0.634073669,27.0941966 2.36596401,25.3623063 L10.6999804,17.0282899 C10.9886287,16.7396415 11.4566203,16.7396415 11.7452686,17.0282899 C12.033917,17.3169383 12.033917,17.7849298 11.7452686,18.0735782 L3.41125229,26.4075946 C2.25665873,27.5621881 2.25665873,29.4341541 3.41125229,30.5887477 C4.56584585,31.7433413 6.43781187,31.7433413 7.59240543,30.5887477 L16.7908408,21.3903124 Z M21.6688687,16.5122844 L30.5887477,7.59240543 C31.7433413,6.43781187 31.7433413,4.56584585 30.5887477,3.41125229 C29.4341541,2.25665873 27.5621881,2.25665873 26.4075946,3.41125229 L21.3007062,8.51814066 C21.0120578,8.80678905 20.5440663,8.80678905 20.2554179,8.51814066 C19.9667695,8.22949227 19.9667695,7.76150076 20.2554179,7.47285237 L25.3623063,2.36596401 C27.0941966,0.634073669 29.9021457,0.634073669 31.634036,2.36596401 C33.3659263,4.09785434 33.3659263,6.90580338 31.634036,8.63769372 L22.7324026,17.5393271 L21.6688687,16.5122844 Z" id="Combined-Shape" fill-rule="nonzero" fill="#D9534C"></path><path d="M13.0289604,30.6069977 C13.0289604,31.3998259 13.0289604,32.192654 13.0289604,32.9854821 L13.0289604,32.9854821 C13.0289604,35.0265345 14.6835602,36.6811343 16.7246126,36.6811343 L16.7246126,36.6811343 C18.7656649,36.6811343 20.4202647,35.0265345 20.4202647,32.9854821 L20.4202647,0.463742998 C20.4202647,-1.57730934 18.7656649,-3.23190918 16.7246126,-3.23190918 L16.7246126,-3.23190918 C14.6835602,-3.23190918 13.0289604,-1.57730934 13.0289604,0.463742998 L13.0289604,25.4558746 C13.0289604,26.8652445 13.0289604,28.5822856 13.0289604,30.6069977 Z" id="Path-2-Copy-2" stroke="#D9534C" stroke-width="1.47826px" fill-opacity="0.36" stroke-linecap="round" transform="translate(16.724613, 16.724613) rotate(-225.000000) translate(-16.724613, -16.724613) " fill="#D9534C"></path></g></g></g></g></g></svg>